<?xml version="1.0" encoding="UTF-8"?>
<svg viewBox="0 0 100 35" version="1.1" xmlns="http://www.w3.org/2000/svg" xmlns:xlink="http://www.w3.org/1999/xlink">
    <title>Capital One Logo</title>
    <desc>Capital One Logo</desc>
    <defs></defs>
    <g id="symbols" stroke="none" stroke-width="1" fill="none" fill-rule="evenodd">
        <g id="footer_hd" transform="translate(-1233.000000, -432.000000)">
            <g id="footer">
                <g id="C1_Core_NG_RGB_R" transform="translate(1232.998789, 432.000000)">
                    <path d="M92.408221,3.29827345 C85.9349193,-3.83238062 44.2823976,2.58181976 26.5693868,6.44653132 L26.156583,6.53576472 C26.0713807,6.55050763 26.0149245,6.63198161 26.0289091,6.716818 C26.0441885,6.80217169 26.1247293,6.85855685 26.2107085,6.84433124 L26.6198866,6.76440915 C41.2953972,4.15517275 71.813353,0.536693648 78.3806621,7.04012743 C80.3843401,9.02421271 79.906275,11.580685 77.5838006,14.5957394 C78.8367144,15.399616 79.7283602,16.6633678 80.1295102,18.2449976 C89.1992803,12.2192858 95.2924089,6.47549984 92.408221,3.29827345 L92.408221,3.29827345 Z M65.4539996,25.0908807 C65.450115,25.0945017 65.4457124,25.0976055 65.4413099,25.1004506 C61.334767,28.0035106 56.4699497,31.0537411 51.2368721,34.2547631 L51.0304702,34.3747755 C50.9605474,34.4249531 50.9419013,34.5214287 50.993178,34.5925568 C51.0416061,34.6631675 51.1387211,34.6799796 51.2094209,34.629802 L51.3839691,34.5387581 C55.822257,32.2251558 60.9201504,29.4785776 66.0498976,26.6608713 C66.0778668,26.6456111 66.1048,26.6306095 66.1325102,26.6153493 C65.850488,26.1539221 65.6187067,25.6472315 65.4539996,25.0908807 L65.4539996,25.0908807 Z" id="Fill-1" fill="#D03027"></path>
                    <path d="M65.9509698,23.0848104 C65.80206,18.8026417 69.1609463,14.4242561 74.0402662,14.4242561 C77.3033323,14.4242561 79.4396048,16.5958608 79.5584736,19.9218096 C79.7146346,24.437537 76.5769116,28.5828811 71.4696951,28.5828811 C68.2053341,28.5828811 66.0698386,26.415932 65.9509698,23.0848104 L65.9509698,23.0848104 Z M68.0732576,23.2187898 C68.157683,25.7284469 69.7459675,27.7831429 71.8195684,27.7831429 C75.8372833,27.7831429 77.5472854,22.8561659 77.4284165,19.5641 C77.3434732,17.048494 75.7127171,14.9987123 73.6427418,14.9987123 C70.1864814,14.9987123 67.9556837,19.9042215 68.0732576,23.2187898 L68.0732576,23.2187898 Z" id="Fill-3" fill="#004977"></path>
                    <path d="M23.9736953,19.3189022 C23.9560851,19.7128224 23.8882341,20.0570822 23.7830908,20.6584378 L23.0649573,24.681183 C23.0033216,25.0378579 23.135916,25.3187492 23.468438,25.510407 L23.4459073,25.6674061 L19.3370337,25.6617158 L19.3005184,24.6390234 C18.7020307,24.9993195 17.9797535,25.303489 17.3266224,25.4819558 C16.675563,25.6485248 16.1488109,25.722498 15.3579058,25.722498 C14.0306666,25.722498 13.2700614,25.5848975 12.745899,25.1252808 C12.2126726,24.6511799 11.954476,24.3374404 11.9801143,23.6853899 C12.0003143,23.3106097 12.1950624,22.8284906 12.4768255,22.4917315 C12.7611784,22.1490235 13.1480849,21.9258107 13.5704706,21.7287213 C13.9941513,21.5264589 14.4931932,21.3808403 15.219096,21.2662595 C15.9460346,21.1485749 16.9575851,21.0311489 18.3130524,20.9181199 C19.0252296,20.8588896 19.4587512,20.6938725 19.6633403,20.6129158 C19.9466573,20.5035079 20.057498,20.3816849 20.0989337,20.1514886 C20.1750719,19.7376525 20.0429955,19.5022833 19.4931947,19.393134 C18.0123842,19.1024142 15.238519,19.5809121 13.8084673,19.938363 L14.5859058,17.8443525 C16.4717508,17.5696688 18.2397629,17.3937885 20.0997107,17.3937885 C23.0571881,17.3937885 24.0034773,18.2364622 23.9736953,19.3189022 L23.9736953,19.3189022 Z M19.7327452,21.953486 C19.5579381,22.0186652 19.3328901,22.0838444 19.0539756,22.1420401 C18.7753202,22.2048914 18.2664372,22.2954181 17.5275858,22.4115508 C17.0184439,22.4917315 16.665722,22.5982943 16.4642406,22.7421024 C16.2713053,22.8846172 16.1581339,23.0542899 16.1257622,23.2609493 C16.0858803,23.4823516 16.1581339,23.6587492 16.3502922,23.7971257 C16.5450403,23.9323983 16.8721239,24.0030091 17.3336146,24.0030091 C17.6793443,24.0030091 18.0185996,23.946624 18.346978,23.8426476 C18.679241,23.733757 18.9581554,23.5858106 19.1746573,23.4032055 C19.3328901,23.2668982 19.4463205,23.0930871 19.5304869,22.8846172 C19.5794329,22.7480513 19.6498737,22.4392261 19.7327452,21.953486 L19.7327452,21.953486 Z" id="Fill-4" fill="#004977"></path>
                    <path d="M37.5273327,15.768706 C37.6451656,15.1083788 38.6893468,14.5719438 39.8557635,14.5719438 C41.023993,14.5719438 41.8767927,15.1083788 41.7638803,15.768706 C41.6408678,16.4298091 40.5987585,16.9654682 39.4292341,16.9654682 C38.25712,16.9654682 37.4087228,16.4298091 37.5273327,15.768706 L37.5273327,15.768706 Z M35.8831099,25.6674061 L37.309536,17.6301924 L41.2436025,17.6301924 L39.8174354,25.6674061 L35.8831099,25.6674061 L35.8831099,25.6674061 Z" id="Fill-5" fill="#004977"></path>
                    <g id="Group-9" transform="translate(0.000000, 14.225615)" fill="#004977">
                        <path d="M59.4548783,5.10880623 C59.438563,5.50350238 59.3683812,5.85112468 59.2603892,6.44704861 L58.5479531,10.4747081 C58.4860585,10.8295726 58.617876,11.1086532 58.9485851,11.3067773 L58.9245006,11.445671 L54.8166629,11.4536891 L54.7850681,10.4284102 C54.1845085,10.79181 53.4588648,11.0944276 52.8103951,11.270308 C52.1559691,11.4417913 51.628958,11.5121434 50.8339093,11.5121434 C49.508224,11.5121434 48.7533162,11.3789399 48.227082,10.9167368 C47.6917838,10.4413426 47.4330693,10.1288964 47.4620743,9.47865644 C47.4763178,9.10077239 47.6744326,8.61658419 47.9567137,8.2842221 C48.2415845,7.93789304 48.6295269,7.71830128 49.0532075,7.52043591 C49.4771471,7.32101865 49.9785198,7.1738482 50.6953585,7.05409439 C51.4259228,6.94106542 52.4410989,6.81820783 53.7952714,6.70517886 C54.5007152,6.64620722 54.9355317,6.48610439 55.137531,6.40799283 C55.4247327,6.29780898 55.5373861,6.17391681 55.5801168,5.94216861 C55.6526293,5.53686792 55.5228836,5.29477382 54.9769675,5.18484861 C53.4894237,4.891025 50.7225507,5.37288537 49.292499,5.7277498 L50.0660529,3.63451525 C51.9588902,3.35879697 53.7175793,3.18188205 55.5808937,3.18188205 C58.5362993,3.18188205 59.4789629,4.02895275 59.4548783,5.10880623 L59.4548783,5.10880623 Z M55.2147051,7.7472698 C55.0386032,7.80701738 54.8101885,7.87193792 54.53231,7.93582386 C54.2562442,8.00126169 53.7465843,8.08325296 53.0035894,8.20378271 C52.4978141,8.2842221 52.1388768,8.39078489 51.9446467,8.53511021 C51.756373,8.673228 51.6429426,8.84471132 51.6033196,9.05214665 C51.5621428,9.27406624 51.6429426,9.45330899 51.8281086,9.58702976 C52.0267413,9.72333702 52.3558966,9.78929214 52.8179054,9.78929214 C53.1605273,9.78929214 53.4964159,9.73859722 53.8271251,9.63462091 C54.1622368,9.52262653 54.4414103,9.37933579 54.658689,9.19492009 C54.8101885,9.05913013 54.9264676,8.88169792 55.0083033,8.673228 C55.0590621,8.53873128 55.1271721,8.22887152 55.2147051,7.7472698 L55.2147051,7.7472698 Z" id="Fill-6"></path>
                        <path d="M11.4422264,8.55295689 C10.1621203,8.80643148 9.4411381,8.90394161 8.17501664,8.90394161 C6.29564591,8.90394161 4.80292263,7.97203452 4.88346339,6.26392615 C4.94095551,5.12639427 6.29098439,2.72511049 9.72031154,2.72511049 C10.7991952,2.72511049 11.6431898,2.91521644 12.7782707,3.56157664 L13.2762767,0.769735083 C11.7335716,0.18726082 10.7108852,0.0998379509 9.3864947,0.114580861 C4.89330438,0.162689303 0.574662208,2.20419435 0.0401408933,6.3534182 C-0.504739362,10.5704077 4.65220005,11.6311213 6.94178481,11.6207754 C8.26384455,11.6171543 9.637699,11.5633556 10.9201358,11.4304108 L11.4422264,8.55295689" id="Fill-8"></path>
                    </g>
                    <path d="M43.4112107,17.5838944 L43.6942688,15.9474315 L47.8085808,15.0527696 L47.3711746,17.5838944 L49.3857295,17.5838944 L49.0029667,19.2027694 L47.0482346,19.1978551 L45.8608411,25.6617158 C45.8608411,25.6617158 41.8990644,25.6355924 41.8853388,25.6617158 L43.0678119,19.2136326 L41.5719809,19.2136326 L41.8760158,17.5838944 L43.4112107,17.5838944" id="Fill-10" fill="#004977"></path>
                    <polyline id="Fill-11" fill="#004977" points="63.4485088 25.6617158 59.4416707 25.6674061 61.4572615 14.4534833 65.3597332 14.5634085 63.4485088 25.6617158"></polyline>
                    <path d="M23.5168661,28.4426942 L25.4314572,17.6695068 L28.8861637,17.6695068 L28.6189031,19.0447358 C28.9187944,18.6342621 29.3978954,18.297503 30.0582778,18.022302 C30.7251346,17.7502048 31.4753808,17.5479424 32.2901115,17.5479424 C33.1918572,17.5479424 33.7478734,17.5965682 34.4227583,17.9454837 C35.0934997,18.297503 35.5614648,18.8070387 35.8168127,19.4712456 C36.0755272,20.1248479 36.1293937,20.8596656 35.9890301,21.6596624 C35.755436,22.9867829 35.1069663,24.0343055 34.044657,24.8035233 C32.9898579,25.5722238 32.0414969,25.7742275 30.6860296,25.7796591 C30.2061517,25.7796591 29.8050017,25.7294815 29.4714439,25.6485248 C29.1456552,25.5631711 28.8861637,25.4599707 28.688049,25.334268 C28.4992573,25.2072721 28.2982939,25.0316504 28.0406152,24.7502419 L27.3965481,28.4426942 L23.5168661,28.4426942 L23.5168661,28.4426942 Z M30.6800732,19.514181 C30.1649749,19.514181 29.6980457,19.6691109 29.2834291,19.9818158 C28.8724381,20.295038 28.6108749,20.7505163 28.5052137,21.3578207 C28.3814244,22.0595315 28.453937,22.562601 28.7320745,22.8747885 C29.0133197,23.1830964 29.4170594,23.3382849 29.9479551,23.3382849 C30.3058565,23.3382849 30.6764476,23.274399 30.9494057,23.1401609 C31.2860712,22.9622114 31.5183704,22.773916 31.7193339,22.4790578 C31.9366127,22.1668702 32.0785301,21.8202825 32.1518196,21.4180856 C32.2647321,20.7833645 32.1691709,20.3077117 31.874718,19.9942309 C31.5880343,19.6722147 31.1930997,19.514181 30.6800732,19.514181 L30.6800732,19.514181 Z" id="Fill-12" fill="#004977"></path>
                    <path d="M95.2828269,25.4480729 L95.59489,25.6591293 C94.8078695,27.2593817 93.2032696,28.5479637 91.3213092,28.5479637 C89.7814527,28.5479637 88.5194748,27.5244954 88.4526597,25.6022269 C88.3283524,22.1573003 91.5595648,18.9567956 94.206274,18.9567956 C95.3418729,18.9567956 96.3938232,19.4521056 96.4412154,20.6726634 C96.5385894,23.4117408 92.6866175,24.2500175 90.1491951,24.3066613 C90.0665826,24.5932428 90.0360237,24.8813762 90.0505262,25.3187492 C90.0924799,26.4549878 90.7808315,27.4104318 92.2033729,27.4104318 C93.4327202,27.4104318 94.6615495,26.4221396 95.2828269,25.4480729 L95.2828269,25.4480729 Z M94.9376152,20.5004041 C94.9150845,19.8527507 94.5890369,19.4171882 93.9195904,19.4171882 C92.3061854,19.4171882 90.589968,22.5734642 90.2937023,23.846786 C92.9411885,23.846786 95.0015817,22.2721398 94.9376152,20.5004041 L94.9376152,20.5004041 Z" id="Fill-13" fill="#004977"></path>
                    <path d="M79.5002046,20.4103948 C79.7734216,20.3736668 80.2134176,20.3260757 80.4032452,20.3260757 C80.6932955,20.3260757 80.9652177,20.380909 80.9786843,20.6661972 C80.9838638,20.8363873 80.6772391,22.0564277 80.6122368,22.3401641 L79.9987286,25.0422549 C79.7508909,26.1479732 79.4818174,27.3059382 79.2438208,28.2207746 L80.8204515,28.2207746 L81.7061409,23.9396405 C84.4108602,21.1273658 85.4506388,20.2099429 86.0892675,20.2099429 C86.3756922,20.2099429 86.5738069,20.3607344 86.5877915,20.7042184 C86.6035888,21.1992698 86.2964463,22.3230933 86.1900082,22.6451095 L85.2854137,25.7675026 C85.0797887,26.4692134 84.9277713,27.1016067 84.9417559,27.5539812 C84.969984,28.2399145 85.3846006,28.544084 86.0004395,28.544084 C87.1528716,28.544084 87.9885791,27.3447354 88.7201793,26.1673717 L88.5060082,25.7801764 C88.2092246,26.2547946 87.5270884,27.2886088 86.9879055,27.2886088 C86.817242,27.2886088 86.6566784,27.1748039 86.650722,26.8897743 C86.6346657,26.5240467 86.7890139,25.9788177 86.895193,25.6164525 L87.8997512,21.9594349 C88.1685657,20.9517441 88.2980525,20.3033147 88.2913192,19.9582789 C88.2661987,19.2751907 87.8666026,18.955761 87.2551662,18.955761 C86.2187542,18.955761 84.8404972,19.7128224 81.9249735,23.0643772 L81.8837967,23.0643772 L82.2505032,21.4284315 C82.4499128,20.5342869 82.6444019,19.600828 82.8339705,18.955761 C81.8257866,19.3189022 80.3799376,19.7247201 79.4867379,19.8969794 L79.5002046,20.4103948" id="Fill-14" fill="#004977"></path>
                    <path d="M98.097092,17.4056863 C98.3084144,17.4056863 98.4904727,17.3904261 98.4904727,17.1403139 C98.4904727,16.9408967 98.312299,16.9033928 98.1387867,16.9033928 L97.8088545,16.9033928 L97.8088545,17.4056863 L98.097092,17.4056863 L98.097092,17.4056863 Z M97.8088545,18.3112113 L97.559463,18.3112113 L97.559463,16.6982853 L98.1768558,16.6982853 C98.5591007,16.6982853 98.7486693,16.8387309 98.7486693,17.1550568 C98.7486693,17.4460353 98.5686827,17.5686342 98.3286143,17.6009652 L98.7890692,18.3112113 L98.5132624,18.3112113 L98.0885458,17.6113111 L97.8088545,17.6113111 L97.8088545,18.3112113 L97.8088545,18.3112113 Z M98.1056381,18.6725419 C98.7367565,18.6725419 99.2376113,18.1790424 99.2376113,17.5000926 C99.2376113,16.8387309 98.7367565,16.3392825 98.1056381,16.3392825 C97.4607941,16.3392825 96.9638239,16.8387309 96.9638239,17.5000926 C96.9638239,18.1790424 97.4607941,18.6725419 98.1056381,18.6725419 L98.1056381,18.6725419 Z M96.6833556,17.5000926 C96.6833556,16.6982853 97.3320842,16.1080516 98.1056381,16.1080516 C98.8683151,16.1080516 99.5178206,16.6982853 99.5178206,17.5000926 C99.5178206,18.3112113 98.8683151,18.9042901 98.1056381,18.9042901 C97.3320842,18.9042901 96.6833556,18.3112113 96.6833556,17.5000926 L96.6833556,17.5000926 Z" id="Fill-15" fill="#004977"></path>
                </g>
            </g>
        </g>
    </g>
</svg>